HIERARCHY
ROOT Hips
{
  OFFSET 90.7885 88.945 -76.2838
  CHANNELS 6 Xposition Yposition Zposition Zrotation Xrotation Yrotation
  JOINT LeftUpLeg
  {
    OFFSET 8.64259 1.95398 -2.38835
    CHANNELS 3 Zrotation Xrotation Yrotation
    JOINT LeftLeg
    {
      OFFSET 43.7702 0 0
      CHANNELS 3 Zrotation Xrotation Yrotation
      JOINT LeftFoot
      {
        OFFSET 40.6238 0 0
        CHANNELS 3 Zrotation Xrotation Yrotation
        JOINT LeftToeBase
        {
          OFFSET 12.7242 0 0
          CHANNELS 3 Zrotation Xrotation Yrotation
          End Site
          {
            OFFSET 0 0 0
          }
        }
      }
    }
  }
  JOINT RightUpLeg
  {
    OFFSET -8.2249 1.95398 -2.59336
    CHANNELS 3 Zrotation Xrotation Yrotation
    JOINT RightLeg
    {
      OFFSET 43.5653 0 0
      CHANNELS 3 Zrotation Xrotation Yrotation
      JOINT RightFoot
      {
        OFFSET 40.6238 0 0
        CHANNELS 3 Zrotation Xrotation Yrotation
        JOINT RightToeBase
        {
          OFFSET 12.7242 0 0
          CHANNELS 3 Zrotation Xrotation Yrotation
          End Site
          {
            OFFSET 0 0 0
          }
        }
      }
    }
  }
  JOINT Spine
  {
    OFFSET 0.165834 0.87714 6.61349
    CHANNELS 3 Zrotation Xrotation Yrotation
    JOINT Spine1
    {
      OFFSET 7.38963 1.71661e-005 0
      CHANNELS 3 Zrotation Xrotation Yrotation
      JOINT Spine2
      {
        OFFSET 11.9445 1.14441e-005 0
        CHANNELS 3 Zrotation Xrotation Yrotation
        JOINT Spine3
        {
          OFFSET 14.7254 4.19617e-005 0
          CHANNELS 3 Zrotation Xrotation Yrotation
          JOINT Spine4
          {
            OFFSET 10.9679 0 0
            CHANNELS 3 Zrotation Xrotation Yrotation
            JOINT RightShoulder
            {
              OFFSET 2.46616 -1.6653 3.69651
              CHANNELS 3 Zrotation Xrotation Yrotation
              JOINT RightArm
              {
                OFFSET 13.0012 0 0
                CHANNELS 3 Zrotation Xrotation Yrotation
                JOINT RightForeArm
                {
                  OFFSET 28.7848 1.52588e-005 0
                  CHANNELS 3 Zrotation Xrotation Yrotation
                  JOINT RightHand
                  {
                    OFFSET 26.5688 1.52588e-005 0
                    CHANNELS 3 Zrotation Xrotation Yrotation
                    End Site
                    {
                      OFFSET 0 0 0
                    }
                  }
                }
              }
            }
            JOINT LeftShoulder
            {
              OFFSET 2.38034 -1.29275 -3.7523
              CHANNELS 3 Zrotation Xrotation Yrotation
              JOINT LeftArm
              {
                OFFSET 16.3182 6.10352e-005 0
                CHANNELS 3 Zrotation Xrotation Yrotation
                JOINT LeftForeArm
                {
                  OFFSET 27.0901 0 0
                  CHANNELS 3 Zrotation Xrotation Yrotation
                  JOINT LeftHand
                  {
                    OFFSET 24.5451 1.52588e-005 0
                    CHANNELS 3 Zrotation Xrotation Yrotation
                    End Site
                    {
                      OFFSET 0 0 0
                    }
                  }
                }
              }
            }
            JOINT Neck
            {
              OFFSET 5.0226 -0.0266342 0
              CHANNELS 3 Zrotation Xrotation Yrotation
              JOINT Head
              {
                OFFSET 6.69363 2.86102e-005 0
                CHANNELS 3 Zrotation Xrotation Yrotation
                End Site
                {
                  OFFSET 0 0 0
                }
              }
            }
          }
        }
      }
    }
  }
}
MOTION
Frames:	6
Frame Time:	0.0416667
-5.10832 95.8517 26.4914 -170.671 -87.1813 -164.163 -168.215 14.4813 108.554 -35.78 18.2841 0.564523 82.5677 9.15523 -6.21768 23.3091 -6.44781 9.57516 175.43 2.50136 101.538 -23.7478 -6.12987 2.00073 78.697 -6.90675 -0.710095 14.2374 -1.91955 5.97611 0.388017 7.75926 -91.1066 11.3526 0.256217 -2.22933 -0.32022 0.157881 -2.23845 -22.8421 0.914241 -2.04941 -2.82946 0.91424 -2.04942 88.9012 -32.6093 -107.89 32.3848 -18.2143 -7.44483 3.04721 -26.2498 -15.9774 -24.8123 -1.06297 -6.16793 -89.7429 -56.5219 80.4027 -13.458 28.1736 -22.9741 -1.10523 1.83192 -8.65783 2.96453 -0.145449 -5.54821 10.3354 -0.725778 -12.4996 -4.12662 2.14398 0.596262 
-5.16629 95.8676 26.0222 -153.286 -87.0886 -146.568 -168.119 14.8958 108.688 -35.8997 17.4905 0.552741 82.647 9.19347 -6.48972 22.9462 -6.72181 9.94372 175.853 2.74022 101.978 -23.0458 -6.40365 1.50236 77.9046 -6.13722 -0.317419 14.4824 -1.75875 5.68086 0.323115 7.73811 -91.1023 11.3937 0.128641 -2.20833 -0.279114 0.031351 -2.21185 -22.8007 0.786249 -2.06768 -2.78804 0.786244 -2.06769 88.4584 -33.2546 -108.477 31.3229 -18.4804 -7.91788 2.95376 -25.6531 -15.2863 -25.0192 -0.981068 -6.44648 -89.2333 -56.2437 81.0635 -13.3571 28.5176 -23.7216 -1.19304 2.99974 -8.32284 5.34621 -0.0646891 -3.97398 9.93911 -0.987106 -14.6034 -4.44077 2.34565 -0.42784 
-5.10387 95.8173 25.5478 -141.614 -87.1149 -135.033 -168.139 15.4875 108.398 -36.0548 17.0863 0.435404 82.4958 9.24018 -6.25353 23.602 -6.74494 9.97856 175.708 3.32286 101.829 -22.7793 -6.93689 1.36816 77.6855 -5.92784 -1.13963 15.1299 -2.81271 7.46208 0.241479 7.73151 -91.0822 11.4056 -0.0245465 -2.15298 -0.267104 -0.119248 -2.14983 -22.7888 0.623511 -2.0609 -2.77613 0.623507 -2.06092 88.2243 -33.2763 -108.909 31.0463 -17.9342 -8.13279 3.05093 -27.345 -15.2069 -25.3847 -0.978337 -6.97516 -89.3778 -56.2905 80.8694 -13.1165 28.9645 -24.2024 -1.38384 2.61739 -8.51448 3.79515 -0.136632 -5.20154 10.1099 -1.56025 -15.6653 -4.68884 2.06322 -0.897946 
-5.05919 95.7487 24.9563 -132.009 -86.5016 -125.453 -168.119 15.7645 108.27 -36.4669 16.4125 0.416743 82.4311 9.25173 -6.4053 24.147 -7.32891 10.7849 175.697 3.94647 101.764 -23.359 -7.2679 1.19741 77.3192 -5.60715 -0.328543 16.0443 -2.64939 7.12629 0.166799 7.76217 -91.0491 11.3434 -0.15708 -2.0734 -0.329163 -0.248161 -2.06449 -22.8515 0.473189 -2.0248 -2.83884 0.473185 -2.02482 88.1848 -33.5007 -108.894 30.9641 -18.2005 -8.19338 3.97698 -27.0436 -14.8194 -25.3171 -0.820278 -7.73046 -89.0357 -55.7332 81.2493 -13.6868 28.9973 -23.9141 -1.57372 1.13648 -8.45874 4.731 -0.140495 -5.17686 10.3177 -1.8076 -16.8114 -4.8684 2.11193 -0.673566 
-4.87022 95.8424 24.6806 -125.459 -85.1911 -118.607 -167.939 15.2706 108.515 -36.5229 14.7251 0.294572 82.4813 9.17864 -7.17132 24.7126 -7.36899 10.8526 175.73 3.48831 101.725 -22.9301 -8.67523 1.23454 76.7935 -5.70563 -0.739559 16.1288 -3.00219 7.7645 0.209416 7.80551 -91.0821 11.257 -0.0868594 -2.14584 -0.415669 -0.181194 -2.13995 -22.9373 0.561927 -2.07281 -2.92462 0.561935 -2.07281 88.3057 -33.3023 -108.745 31.3517 -17.8052 -7.81593 3.59836 -27.4664 -14.7981 -25.8039 -0.992143 -6.91771 -89.0606 -55.7069 81.2096 -13.7866 28.5893 -23.7702 -0.926181 4.36085 -8.75615 2.63053 -0.112514 -4.87313 9.49292 -1.62022 -17.6827 -3.47578 2.35222 -0.26824 
-4.62258 95.8318 24.6259 -123.503 -85.1675 -116.466 -168.1 15.5154 108.464 -36.8575 14.7224 0.377291 82.7333 9.3397 -6.86091 24.1861 -7.24723 10.6731 175.703 3.46162 101.663 -22.5335 -8.66639 1.28199 77.2859 -6.03013 -1.18158 15.9776 -3.67212 8.9698 0.168673 7.80893 -91.1232 11.2488 -0.186984 -2.21774 -0.424008 -0.284379 -2.20737 -22.9444 0.48802 -2.17147 -2.93179 0.488021 -2.17147 88.4152 -33.2258 -108.57 31.1777 -17.1554 -7.89904 3.91501 -28.4979 -14.5362 -25.2909 -0.812669 -8.23647 -89.3065 -56.2782 80.9675 -12.8242 28.9875 -24.3043 -1.21066 3.87601 -8.85184 3.17534 -0.101941 -4.60685 9.79143 -1.70988 -17.8641 -3.55059 2.35704 -0.586907 
